<svg xmlns="http://www.w3.org/2000/svg" viewBox="0 0 420 560">
  <defs>
    <linearGradient id="bg" x1="0" y1="0" x2="1" y2="1">
      <stop offset="0%" stop-color="#fff9ef"/>
      <stop offset="100%" stop-color="#f3e2c4"/>
    </linearGradient>
  </defs>
  <rect width="420" height="560" fill="url(#bg)"/>
  <rect x="16" y="16" width="388" height="528" fill="none" stroke="#b8860b" stroke-width="2"/>
  <rect x="26" y="26" width="368" height="508" fill="none" stroke="#d4af37" stroke-width="0.8"/>
  <circle cx="42" cy="42" r="10" fill="none" stroke="#b8860b" stroke-width="1.2"/>
  <circle cx="378" cy="42" r="10" fill="none" stroke="#b8860b" stroke-width="1.2"/>
  <circle cx="42" cy="518" r="10" fill="none" stroke="#b8860b" stroke-width="1.2"/>
  <circle cx="378" cy="518" r="10" fill="none" stroke="#b8860b" stroke-width="1.2"/>
  <path d="M210 30 C230 48 250 38 262 52 C240 54 222 70 210 78 C198 70 180 54 158 52 C170 38 190 48 210 30Z" fill="#b8860b" opacity="0.45"/>
  <path d="M70 50 Q110 70 70 90" fill="none" stroke="#c9a227" stroke-width="1"/>
  <path d="M350 50 Q310 70 350 90" fill="none" stroke="#c9a227" stroke-width="1"/>
</svg>
